HIERARCHY
ROOT hip
{
	OFFSET 0.000000 0.000000 0.000000 
	CHANNELS 6 Xposition Yposition Zposition Xrotation Zrotation Yrotation
	JOINT abdomen
	{
		OFFSET 0.000000 3.402643 0.000000 
		CHANNELS 3 Xrotation Zrotation Yrotation
		JOINT chest
		{
			OFFSET 0.000000 8.438565 -0.680529 
			CHANNELS 3 Xrotation Zrotation Yrotation
			JOINT neck
			{
				OFFSET 0.000000 10.207942 -0.272212 
				CHANNELS 3 Xrotation Zrotation Yrotation
				JOINT head
				{
					OFFSET 0.000000 3.130431 0.000000 
					CHANNELS 3 Xrotation Zrotation Yrotation
					End Site
					{
						OFFSET 0.000000 3.130435 0.000000 
					}
				}
			}
			JOINT lCollar
			{
				OFFSET 3.470700 6.669187 -0.816635 
				CHANNELS 3 Yrotation Zrotation Xrotation
				JOINT lShldr
				{
					OFFSET 3.198488 0.000000 0.000000 
					CHANNELS 3 Zrotation Yrotation Xrotation
					JOINT lForeArm
					{
						OFFSET 10.139888 0.000000 0.000000 
						CHANNELS 3 Yrotation Zrotation Xrotation
						JOINT lHand
						{
							OFFSET 8.370511 0.000000 0.000000 
							CHANNELS 3 Zrotation Yrotation Xrotation
							End Site
							{
								OFFSET 4.083176 0.000000 0.000000 
							}
						}
					}
				}
			}
			JOINT rCollar
			{
				OFFSET -3.470700 6.669187 -0.816635 
				CHANNELS 3 Yrotation Zrotation Xrotation
				JOINT rShldr
				{
					OFFSET -3.198488 0.000000 0.000000 
					CHANNELS 3 Zrotation Yrotation Xrotation
					JOINT rForeArm
					{
						OFFSET -10.139888 0.000000 0.000000 
						CHANNELS 3 Yrotation Zrotation Xrotation
						JOINT rHand
						{
							OFFSET -8.370511 0.000000 0.000000 
							CHANNELS 3 Zrotation Yrotation Xrotation
							End Site
							{
								OFFSET -4.083176 0.000000 0.000000 
							}
						}
					}
				}
			}
		}
	}
	JOINT lThigh
	{
		OFFSET 5.308129 -1.633274 1.361059 
		CHANNELS 3 Xrotation Zrotation Yrotation
		JOINT lShin
		{
			OFFSET -2.041588 -20.007561 0.000000 
			CHANNELS 3 Xrotation Zrotation Yrotation
			JOINT lFoot
			{
				OFFSET 0.000000 -19.190928 -1.224953 
				CHANNELS 3 Xrotation Yrotation Zrotation
				End Site
				{
					OFFSET 0.000000 -2.449906 4.627600 
				}
			}
		}
	}
	JOINT rThigh
	{
		OFFSET -5.308129 -1.633274 1.361059 
		CHANNELS 3 Xrotation Zrotation Yrotation
		JOINT rShin
		{
			OFFSET 2.041588 -20.007561 0.000000 
			CHANNELS 3 Xrotation Zrotation Yrotation
			JOINT rFoot
			{
				OFFSET 0.000000 -19.190928 -1.224953 
				CHANNELS 3 Xrotation Yrotation Zrotation
				End Site
				{
					OFFSET 0.000000 -2.449906 4.627600 
				}
			}
		}
	}
}
MOTION
Frames: 11
Frame Time: 0.016667
-1.581601 51.329590 0.855013 9.136129 -6.750021 7.549377 21.211584 0.436994 2.943105 -18.982872 3.971600 1.975565 -19.638689 -5.603586 -0.855946 11.160737 3.248073 -1.332125 1.993417 -2.013218 -0.007815 -79.919678 7.352962 39.341190 -91.406555 0.984766 5.864657 -13.581118 32.744041 -11.770725 -2.003164 1.994041 -0.018257 85.484558 -2.384556 10.077022 36.153969 -2.561831 0.251001 -0.177468 1.736601 2.520741 -25.760822 18.270800 4.209222 47.670567 -2.708145 -3.077082 -2.998040 0.002629 0.011626 -16.801704 -0.165753 -8.466200 26.477249 3.587309 1.806190 -0.487933 0.013770 0.015749 
-1.980688 51.399200 0.911674 8.709044 -6.516451 7.246014 21.544209 0.599504 2.863722 -19.014919 4.081695 1.895712 -20.752569 -5.719368 -1.187128 10.740685 3.300653 -1.532395 1.993417 -2.013218 -0.007815 -81.622673 6.395412 37.085629 -84.514709 0.974980 5.920139 -13.581118 32.744041 -11.770725 -2.003164 1.994041 -0.018257 84.819504 -1.720805 10.131429 36.281048 -2.561269 0.256674 -0.177468 1.736601 2.520741 -27.205778 17.752968 4.427151 50.492336 -2.532782 -3.214919 -2.978442 -0.026459 0.010271 -15.971947 0.234771 -8.042065 25.746117 3.592728 1.783451 -0.505753 0.042715 0.016412 
-2.301897 51.441154 1.085468 8.389002 -6.183649 6.540092 21.681211 0.662461 2.802524 -19.133978 4.143396 1.845497 -21.350801 -5.696579 -1.342723 10.506660 3.370398 -1.601809 1.993417 -2.013218 -0.007815 -83.329903 6.256106 34.404305 -78.269302 0.973881 5.971917 -13.581118 32.744041 -11.770725 -2.003164 1.994041 -0.018257 84.255577 -1.432360 10.139864 36.310143 -2.559047 0.244334 -0.177468 1.736601 2.520741 -27.899794 16.942944 4.699827 52.098721 -2.445019 -3.271299 -2.968735 -0.011496 0.005846 -15.396605 0.517314 -6.991229 25.501684 3.654334 1.768804 -0.487857 0.015618 0.016459 
-2.498837 51.331211 1.389720 8.459381 -5.651141 5.722718 21.573660 0.635709 2.653787 -19.182690 4.132948 1.767044 -21.468126 -5.682936 -1.373714 10.428823 3.409663 -1.609109 1.993417 -2.013218 -0.007815 -85.048058 6.412868 31.381527 -72.122215 0.977903 6.015936 -13.581118 32.744041 -11.770725 -2.003164 1.994041 -0.018257 83.806328 -1.394415 10.022474 36.231915 -2.553609 0.248725 -0.177468 1.736601 2.520741 -28.312662 15.483426 4.764129 52.489193 -2.423632 -3.318542 -2.968737 -0.008153 -0.003335 -15.594681 0.419571 -5.891416 26.342480 3.621053 1.871570 -0.486531 0.035213 0.023984 
-2.637094 51.191998 1.732729 8.677292 -5.107198 5.061096 21.378336 0.636562 2.446540 -19.211590 4.113769 1.673686 -21.431400 -5.748088 -1.313672 10.458383 3.428550 -1.594061 1.993417 -2.013218 -0.007815 -86.716194 6.459586 28.252737 -65.926796 0.977945 6.065735 -13.581118 32.744041 -11.770725 -2.003164 1.994041 -0.018257 83.373047 -1.568818 9.749625 36.271271 -2.561312 0.256238 -0.177468 1.736601 2.520741 -28.616201 13.570284 4.516147 51.804890 -2.454921 -3.264391 -2.998028 -0.013233 0.005132 -16.099779 0.204745 -4.892119 27.553204 3.557112 1.916341 -0.496505 0.036603 0.014060 
-2.734169 51.069237 2.106683 8.993946 -4.591531 4.508446 21.124456 0.646770 2.193331 -19.191551 4.095811 1.564303 -21.356186 -5.833008 -1.192012 10.487307 3.389815 -1.540814 1.993417 -2.013218 -0.007815 -88.254265 6.428775 25.051353 -60.038338 0.979102 6.118281 -13.581118 32.744041 -11.770725 -2.003164 1.994041 -0.018257 82.954643 -1.839792 9.477448 36.476582 -2.566181 0.257546 -0.177468 1.736601 2.520741 -28.589884 11.394866 4.096992 49.952736 -2.569501 -3.211748 -2.988280 -0.002760 -0.001130 -16.556168 -0.087765 -4.143826 28.563738 3.495852 1.984851 -0.497513 0.018084 0.017408 
-2.801374 51.035778 2.531549 9.213538 -4.125951 3.832928 20.919407 0.656782 2.008956 -19.105078 4.162585 1.489676 -21.297335 -5.835332 -1.080781 10.506870 3.389601 -1.490831 1.993417 -2.013218 -0.007815 -89.662109 6.384846 21.861698 -54.606461 0.999433 6.163163 -13.581118 32.744041 -11.770725 -2.003164 1.994041 -0.018257 82.516144 -2.245986 9.225767 36.818745 -2.570449 0.265024 -0.177468 1.736601 2.520741 -27.951694 9.313455 3.645046 47.200817 -2.717798 -3.047133 -2.978515 -0.006924 0.018264 -16.631657 -0.312153 -3.518820 28.968512 3.485509 2.002275 -0.497062 0.025827 0.020383 
-2.856415 50.996658 2.987388 9.307514 -3.777872 3.033071 20.753548 0.694034 1.923242 -19.021236 4.330975 1.458478 -21.206182 -5.765971 -0.981110 10.565458 3.379357 -1.430561 1.993417 -2.013218 -0.007815 -90.938690 6.329928 18.702322 -49.609528 1.013962 6.197609 -13.581118 32.744041 -11.770725 -2.003164 1.994041 -0.018257 82.076088 -2.759120 8.936034 37.219589 -2.580342 0.267416 -0.177468 1.736601 2.520741 -26.888098 7.566168 3.156295 44.101978 -2.863741 -2.920190 -2.988271 0.011896 -0.005680 -16.449059 -0.400740 -2.867644 29.219597 3.537439 2.003968 -0.507084 0.032315 -0.008508 
-2.911857 50.956596 3.450714 9.266642 -3.614445 2.213360 20.607641 0.813534 1.878271 -18.951382 4.647045 1.424533 -21.014238 -5.627313 -0.870932 10.653603 3.387984 -1.355219 1.993417 -2.013218 -0.007815 -92.033455 6.346569 15.743738 -45.243263 1.032618 6.231083 -13.581118 32.744041 -11.770725 -2.003164 1.994041 -0.018257 81.658157 -3.244454 8.597756 37.542778 -2.606178 0.278319 -0.177468 1.736601 2.520741 -25.670023 6.337060 2.933972 41.286343 -3.006859 -2.749715 -2.988217 -0.018322 -0.007499 -16.065140 -0.263591 -2.414668 29.302139 3.495601 2.019038 -0.486913 0.037749 0.004035 
-2.973884 50.941486 3.925316 9.081621 -3.703123 1.478793 20.501348 1.006196 1.821630 -18.892134 4.972336 1.387392 -20.828354 -5.378342 -0.771036 10.742075 3.425381 -1.284164 1.993417 -2.013218 -0.007815 -92.788849 6.632460 13.402548 -41.810112 1.055990 6.253234 -13.581118 32.744041 -11.770725 -2.003164 1.994041 -0.018257 81.365112 -3.788620 8.250441 37.865402 -2.610562 0.285255 -0.177468 1.736601 2.520741 -24.264120 5.809531 3.379493 39.388378 -3.117205 -2.689290 -2.988280 -0.002126 -0.000870 -15.378840 0.038930 -2.242859 29.120304 3.523904 2.060998 -0.488280 -0.000914 -0.000351 
-3.049901 50.917068 4.387765 8.810437 -3.976116 0.926661 20.434505 1.217121 1.674242 -18.853653 5.315734 1.294052 -20.806232 -5.022682 -0.731779 10.733061 3.492656 -1.212852 1.993417 -2.013218 -0.007815 -93.153717 7.156830 11.980612 -39.316353 1.055919 6.269568 -13.581118 32.744041 -11.770725 -2.003164 1.994041 -0.018257 81.276482 -4.315570 7.775877 37.992184 -2.596221 0.292730 -0.177468 1.736601 2.520741 -22.713560 5.829936 3.647321 38.014992 -3.152518 -2.591508 -2.988271 -0.007469 -0.003057 -14.614902 0.507289 -2.218080 28.952759 3.523713 2.058587 -0.496679 0.034477 0.013244 
